<?xml version="1.0" standalone="no"?>
<!DOCTYPE svg PUBLIC "-//W3C//DTD SVG 20010904//EN"
 "http://www.w3.org/TR/2001/REC-SVG-20010904/DTD/svg10.dtd">
<svg version="1.0" xmlns="http://www.w3.org/2000/svg"
 width="903.000000pt" height="903.000000pt" viewBox="0 0 903.000000 903.000000"
 preserveAspectRatio="xMidYMid meet">
<metadata>
Created by potrace 1.14, written by Peter Selinger 2001-2017
</metadata>
<g transform="translate(0.000000,903.000000) scale(0.100000,-0.100000)"
fill="#000000" stroke="none">
<path d="M3885 5060 c-7 -12 29 -65 53 -79 14 -8 15 -12 4 -23 -10 -10 -21 -8
-56 11 -40 22 -66 22 -66 0 0 -5 20 -21 44 -36 41 -25 44 -29 39 -60 -9 -51
20 -42 48 14 60 120 202 125 264 10 21 -38 42 -48 51 -23 11 29 -49 108 -101
133 -47 23 -108 23 -166 -1 -11 -5 -27 4 -50 28 -34 37 -53 44 -64 26z"/>
<path d="M4889 5031 c-62 -20 -139 -110 -125 -146 9 -23 35 -17 42 9 3 13 20
37 37 54 80 76 191 51 239 -55 18 -41 48 -59 48 -29 0 8 16 18 38 23 27 6 37
14 37 28 0 15 -6 19 -25 17 -14 -1 -34 -4 -44 -5 -35 -4 -26 18 14 35 38 16
52 40 31 53 -5 3 -30 -4 -54 -16 l-45 -22 -35 27 c-38 29 -112 42 -158 27z"/>
<path d="M4599 4618 c-1 -7 0 -17 1 -23 6 -29 1 -58 -15 -75 -43 -47 -125 -4
-125 65 0 28 -4 35 -20 35 -17 0 -20 -7 -20 -44 0 -74 73 -135 142 -119 60 15
100 89 79 146 -11 27 -40 38 -42 15z"/>
<path d="M7245 4033 c-28 -25 -49 -50 -47 -55 1 -5 -1 -7 -6 -4 -4 2 -23 -9
-42 -26 -114 -98 -230 -201 -230 -202 0 -2 20 -17 45 -35 29 -21 50 -29 59
-24 14 8 87 76 223 206 l61 60 32 -37 c18 -20 36 -33 41 -30 5 3 9 -1 9 -8 0
-19 48 -61 60 -53 6 4 9 2 8 -4 -2 -5 30 -42 70 -80 l72 -71 30 21 c16 12 26
27 23 32 -3 6 -2 7 4 4 6 -4 18 -1 28 6 16 12 14 16 -20 45 -20 18 -41 29 -47
26 -6 -4 -8 -3 -5 4 9 14 -290 265 -305 256 -7 -4 -8 -3 -4 4 16 26 -12 10
-59 -35z"/>
<path d="M1159 4003 c-1 -4 -1 -11 0 -15 0 -4 1 -502 1 -1107 l0 -1100 303 -1
c259 0 316 3 403 19 159 31 311 95 439 187 64 45 130 100 106 88 -9 -5 -12 -3
-7 5 4 6 11 9 16 6 12 -7 110 102 162 182 86 130 138 251 169 398 26 124 26
350 0 455 -26 106 -56 192 -87 252 -15 29 -34 67 -42 83 -23 46 -114 164 -174
225 -71 74 -164 144 -179 134 -7 -4 -9 -3 -6 3 12 19 -182 121 -205 107 -6 -4
-8 -3 -5 3 7 12 -52 34 -160 59 -53 13 -143 17 -400 21 -183 3 -334 1 -334 -4z
m602 -144 c102 -10 233 -46 319 -88 24 -11 47 -18 53 -14 6 3 7 2 4 -4 -4 -6
28 -33 71 -61 42 -28 99 -73 126 -101 27 -28 54 -47 59 -44 6 3 7 1 4 -4 -6
-9 20 -52 43 -73 14 -13 50 -70 50 -79 0 -6 8 -15 18 -20 9 -6 14 -11 9 -11
-4 0 3 -21 17 -47 65 -129 97 -278 94 -433 -1 -47 -2 -101 -2 -120 -1 -19 -4
-37 -7 -40 -3 -3 -11 -31 -17 -64 -12 -62 -75 -220 -99 -247 -7 -9 -11 -24 -7
-33 4 -11 2 -15 -7 -11 -9 3 -24 -12 -39 -37 -14 -23 -59 -76 -100 -117 -41
-42 -74 -79 -72 -84 1 -5 -2 -6 -8 -2 -5 3 -29 -9 -53 -29 -43 -35 -219 -126
-244 -126 -8 0 -11 -5 -7 -12 4 -7 3 -8 -4 -4 -6 4 -37 -1 -69 -10 -46 -13
-116 -18 -330 -21 l-273 -5 0 969 c0 533 3 973 7 976 10 11 351 8 464 -4z"/>
<path d="M3650 3404 c-54 -7 -131 -35 -125 -45 4 -5 0 -6 -8 -3 -18 6 -137
-52 -137 -67 0 -5 -4 -8 -9 -5 -17 11 -163 -118 -208 -185 -9 -13 -20 -26 -23
-29 -18 -15 -90 -172 -84 -183 4 -7 3 -8 -2 -4 -12 11 -33 -67 -50 -188 -23
-158 4 -334 72 -469 37 -75 84 -146 97 -146 6 0 7 -3 4 -7 -10 -9 44 -64 55
-57 5 3 7 1 6 -5 -3 -11 90 -101 104 -101 4 0 28 -14 53 -31 25 -17 57 -32 70
-33 13 0 21 -3 19 -5 -6 -6 67 -37 107 -46 111 -25 235 -29 335 -10 102 19
260 87 248 106 -4 8 -3 9 4 5 14 -9 138 87 134 104 -1 6 2 9 7 6 13 -9 113
116 106 132 -3 7 -1 11 4 8 5 -3 19 15 32 39 13 25 27 45 31 45 5 0 8 -101 8
-225 l0 -225 65 0 65 0 0 815 0 815 -65 0 -65 0 0 -230 c0 -211 -7 -268 -25
-211 -22 71 -181 262 -198 239 -6 -9 -7 -8 -3 4 8 27 -123 121 -153 110 -8 -2
-11 0 -8 5 7 11 -48 37 -125 59 -53 15 -270 26 -338 18z m295 -143 c44 -10
101 -27 128 -39 26 -11 47 -18 47 -14 0 4 4 3 8 -3 4 -5 33 -28 65 -49 93 -63
182 -167 232 -271 24 -49 49 -115 56 -145 17 -72 17 -232 0 -295 -19 -72 -43
-137 -57 -159 -7 -10 -10 -26 -7 -35 4 -9 2 -13 -2 -8 -5 4 -21 -11 -35 -34
-32 -47 -110 -130 -157 -166 -18 -14 -30 -30 -26 -36 3 -5 1 -7 -4 -4 -14 9
-65 -17 -55 -28 4 -5 2 -5 -5 -1 -6 3 -29 -3 -50 -13 -69 -36 -151 -51 -278
-51 -163 0 -248 27 -390 124 -33 22 -64 39 -68 38 -5 -1 -6 2 -3 7 8 12 -18
33 -29 23 -5 -4 -5 -2 -1 5 3 6 0 15 -7 20 -7 4 -24 24 -37 43 -13 19 -27 37
-30 40 -11 10 -72 142 -86 188 -19 60 -29 264 -16 317 6 22 15 56 20 75 29
115 136 266 244 346 31 23 54 45 50 49 -4 5 -2 6 3 3 6 -4 28 3 50 14 147 73
293 93 440 59z"/>
<path d="M4947 3381 c-3 -14 -5 -379 -4 -811 l2 -785 67 -3 68 -3 4 573 c3
552 5 612 15 603 2 -3 12 13 22 35 29 65 96 145 157 187 82 58 107 69 200 89
l82 17 0 65 0 64 -37 -6 c-21 -3 -48 -6 -60 -6 -61 0 -222 -87 -207 -112 4 -6
3 -8 -4 -4 -13 8 -94 -73 -86 -86 3 -4 0 -8 -5 -8 -6 0 -25 -26 -43 -57 -39
-68 -36 -76 -40 137 l-3 135 -61 1 c-59 2 -62 0 -67 -25z"/>
<path d="M5790 2595 l0 -812 64 -2 65 -2 3 563 3 563 23 48 c12 26 20 53 16
60 -4 7 -4 9 1 5 4 -4 21 12 37 35 41 58 121 130 181 163 28 15 89 37 136 49
l86 21 2 63 2 63 -64 -5 c-35 -3 -74 -11 -87 -18 -13 -7 -31 -14 -41 -16 -61
-10 -206 -146 -252 -236 -15 -31 -32 -54 -36 -51 -5 3 -9 77 -9 164 l0 160
-65 -1 -65 -1 0 -813z"/>
<path d="M7200 3400 c-54 -10 -129 -35 -190 -63 -64 -30 -150 -86 -150 -98 0
-6 -4 -8 -8 -5 -5 3 -18 -5 -30 -17 -12 -12 -37 -38 -57 -57 -94 -91 -191
-275 -215 -409 -30 -167 5 -439 67 -512 7 -8 13 -22 13 -30 0 -12 2 -11 11 1
8 12 9 10 4 -7 -4 -15 0 -28 14 -42 10 -10 17 -22 14 -25 -3 -3 2 -8 11 -12 9
-3 14 -10 11 -14 -8 -12 116 -142 131 -136 7 3 11 0 9 -7 -5 -12 82 -73 159
-112 187 -94 442 -109 646 -37 141 50 324 188 397 299 14 21 12 25 -28 63 -46
44 -54 47 -66 26 -10 -18 -93 -105 -125 -131 -69 -57 -171 -113 -252 -140 -26
-8 -92 -21 -146 -27 -85 -10 -110 -9 -187 6 -81 16 -206 66 -220 88 -3 6 13
29 36 52 23 23 38 46 34 51 -5 4 -3 6 2 2 11 -6 63 40 274 246 78 75 129 132
125 139 -4 7 -3 8 5 4 8 -5 87 65 219 191 114 110 240 230 280 268 39 37 72
72 72 77 0 5 -5 6 -12 2 -7 -4 -8 -3 -4 4 9 15 -53 93 -68 85 -6 -3 -8 -2 -3
2 10 11 -33 56 -46 48 -6 -3 -7 -1 -3 5 8 14 -114 114 -132 107 -7 -3 -11 -1
-8 4 7 10 -112 66 -197 93 -70 22 -309 33 -387 18z m309 -136 c68 -17 186 -73
231 -109 14 -11 51 -46 83 -79 l59 -59 -127 -127 c-69 -69 -122 -130 -118
-134 4 -4 1 -6 -7 -4 -8 2 -14 -3 -12 -10 1 -8 -1 -11 -6 -8 -13 8 -663 -634
-655 -648 3 -6 3 -8 -2 -4 -4 4 -14 3 -22 -3 -17 -15 -87 41 -136 108 -122
167 -164 356 -121 545 9 38 17 75 18 82 1 6 6 18 11 26 5 8 21 38 35 66 59
114 136 199 250 276 44 30 154 74 225 91 50 12 232 6 294 -9z m261 -388 c0 -2
-8 -10 -17 -17 -16 -13 -17 -12 -4 4 13 16 21 21 21 13z"/>
</g>
</svg>
